<?xml version="1.0" standalone="no"?>
<!DOCTYPE svg PUBLIC "-//W3C//DTD SVG 20010904//EN"
 "http://www.w3.org/TR/2001/REC-SVG-20010904/DTD/svg10.dtd">
<svg version="1.0" xmlns="http://www.w3.org/2000/svg"
 width="700.000000pt" height="700.000000pt" viewBox="0 0 700.000000 700.000000"
 preserveAspectRatio="xMidYMid meet">
<metadata>
Created by potrace 1.14, written by Peter Selinger 2001-2017
</metadata>
<g transform="translate(0.000000,700.000000) scale(0.100000,-0.100000)"
fill="#000000" stroke="none">
<path d="M0 3500 l0 -3500 3500 0 3500 0 0 3500 0 3500 -3500 0 -3500 0 0
-3500z m3662 3267 c-20 -24 2 -36 61 -33 53 3 58 1 54 -16 -3 -10 -4 -18 -3
-18 0 0 16 4 34 9 28 8 34 7 38 -7 3 -9 11 -28 18 -42 8 -14 11 -31 9 -37 -3
-7 2 -13 10 -13 8 0 26 -9 40 -20 l26 -20 3 32 c3 31 6 33 43 36 31 2 43 8 51
25 5 12 16 21 23 19 7 -1 15 7 18 18 6 24 13 24 77 5 53 -16 107 -46 146 -80
14 -13 51 -41 84 -63 110 -75 246 -212 349 -349 103 -139 137 -203 193 -365
36 -103 42 -134 21 -107 -7 9 -17 14 -23 12 -15 -5 -47 46 -74 120 -31 83 -35
65 -5 -23 14 -40 25 -84 25 -97 0 -14 4 -33 10 -43 10 -19 41 -182 35 -188 -3
-3 -13 23 -70 188 -41 116 -112 290 -126 304 -5 6 -9 16 -9 24 0 15 -61 114
-67 108 -2 -2 8 -23 22 -47 13 -24 25 -47 25 -51 0 -17 -22 -6 -50 25 -24 26
-29 28 -30 13 0 -12 -5 -16 -15 -12 -21 8 -19 -6 9 -47 13 -19 27 -45 31 -58
l7 -22 -26 21 c-15 11 -34 18 -42 15 -7 -3 -17 2 -20 11 -3 9 -10 16 -16 16
-5 0 -25 12 -45 27 l-36 28 17 -32 c9 -18 16 -42 16 -55 0 -13 18 -59 39 -103
22 -44 35 -81 30 -83 -5 -2 -2 -19 6 -38 12 -30 12 -34 -1 -34 -7 0 -14 5 -14
12 0 19 -61 108 -71 102 -5 -3 5 -28 21 -57 100 -172 122 -260 69 -284 -21 -9
-26 -16 -22 -37 3 -14 1 -26 -3 -26 -5 0 -9 -28 -9 -63 l0 -62 -37 -9 c-61
-15 -71 -76 -12 -76 35 0 41 -49 13 -106 l-22 -47 -76 8 c-42 4 -94 8 -116 10
-22 1 -45 3 -52 4 -21 2 -52 42 -46 58 5 13 -1 14 -38 8 -24 -4 -55 -15 -69
-24 -14 -10 -40 -23 -57 -30 -18 -8 -33 -17 -33 -22 0 -5 -13 -15 -30 -24 -33
-17 -54 -46 -64 -88 -6 -26 -5 -28 15 -22 14 5 19 4 15 -4 -4 -6 -2 -11 4 -11
6 0 19 15 28 32 42 79 117 129 148 98 6 -6 23 -6 49 1 53 15 160 6 210 -16 36
-17 38 -19 16 -23 -13 -2 -26 0 -30 5 -7 11 -98 10 -126 -1 -66 -26 -214 -115
-215 -130 0 -5 7 -3 15 4 8 6 19 9 25 5 6 -3 26 10 45 29 19 20 39 36 43 36 5
0 14 -18 21 -40 13 -45 14 -46 69 -58 35 -8 48 -6 86 13 24 12 50 19 56 15 7
-4 21 -5 31 -3 34 9 20 -15 -22 -36 -23 -12 -47 -28 -55 -35 -11 -12 -9 -15
11 -20 14 -4 25 -13 25 -21 0 -23 23 -18 71 15 24 16 54 30 65 30 12 0 27 7
34 15 14 17 85 21 75 5 -4 -6 -2 -17 4 -24 13 -15 13 -65 1 -111 -5 -16 -11
-42 -14 -56 -3 -14 -14 -36 -25 -48 -22 -26 -61 -121 -61 -150 0 -18 -20 -70
-40 -101 -5 -8 -20 -41 -35 -72 -14 -32 -30 -58 -35 -58 -6 0 -10 -6 -10 -14
0 -8 -12 -47 -26 -88 -14 -40 -32 -98 -39 -128 -28 -114 -49 -161 -93 -203
-16 -16 -40 -29 -54 -31 -13 -1 -35 -10 -48 -19 -22 -15 -25 -15 -33 -1 -5 8
-18 14 -30 12 -12 -1 -23 1 -25 5 -2 4 12 39 30 76 29 60 37 70 65 75 36 8 63
30 63 53 0 10 -6 13 -16 9 -11 -4 -18 1 -21 14 -3 11 -10 17 -16 13 -5 -3 -18
5 -27 17 -17 22 -21 23 -58 12 -21 -7 -75 -12 -118 -13 -78 -1 -169 -15 -189
-29 -17 -12 -55 -19 -55 -9 0 6 -7 6 -19 0 -10 -6 -21 -8 -24 -5 -3 3 -15 0
-27 -6 -15 -8 -20 -8 -16 -1 4 6 0 11 -8 11 -9 0 -16 -6 -16 -12 0 -10 -2 -10
-9 0 -4 7 -12 12 -17 11 -5 -1 -11 0 -14 1 -31 12 -185 19 -201 10 -25 -16
160 -75 270 -85 24 -3 54 -8 65 -12 22 -7 152 -5 218 3 30 3 36 1 32 -11 -4
-8 -10 -15 -16 -15 -5 0 -6 -4 -3 -10 4 -6 -1 -7 -12 -3 -10 3 -15 3 -11 -1 7
-8 -27 -46 -41 -46 -6 0 -9 -9 -8 -20 1 -22 13 -27 20 -7 3 7 6 5 6 -5 1 -11
-9 -20 -26 -24 -16 -4 -35 -12 -43 -18 -8 -7 -44 -11 -80 -11 -39 0 -70 -4
-78 -12 -20 -20 26 -27 174 -28 83 0 130 -4 128 -10 -6 -17 11 -34 36 -37 34
-4 41 -28 19 -60 -11 -14 -19 -29 -19 -32 0 -7 -94 -100 -128 -128 -12 -10
-29 -18 -37 -18 -8 0 -18 -6 -22 -13 -13 -21 -112 -45 -192 -46 -42 0 -78 -6
-82 -12 -8 -13 -20 -14 -28 -2 -3 5 -25 13 -48 19 -32 8 -43 8 -47 -1 -7 -20
44 -84 78 -96 39 -14 87 -81 91 -126 1 -19 11 -44 22 -56 17 -18 27 -37 39
-77 13 -46 61 -131 77 -136 25 -8 57 -40 57 -58 0 -8 9 -17 19 -21 13 -4 17
-12 14 -25 -4 -14 0 -20 11 -20 9 0 16 -6 16 -14 0 -7 9 -16 21 -19 12 -3 18
-10 14 -16 -3 -6 1 -11 10 -11 18 0 47 -25 62 -54 6 -10 24 -24 40 -31 25 -11
35 -11 54 0 65 37 90 44 116 34 15 -5 39 -7 55 -4 17 4 28 2 28 -4 0 -7 14
-10 32 -9 18 1 33 -3 36 -10 2 -6 10 -12 17 -12 17 0 23 -51 30 -270 3 -102
12 -277 20 -390 8 -113 19 -293 25 -400 6 -107 15 -249 20 -315 5 -66 10 -165
11 -220 l2 -100 -149 -12 c-399 -31 -604 -37 -814 -24 -113 7 -250 19 -305 26
-55 8 -145 20 -200 26 -158 18 -141 -18 -149 306 -4 153 -10 357 -13 453 -4
96 -7 380 -7 630 0 384 3 475 18 583 10 71 15 139 12 153 -5 18 -2 24 9 24 13
0 15 9 9 50 -4 30 -3 50 3 50 6 0 10 21 9 48 0 26 5 101 11 167 8 73 10 196 7
313 -5 186 -7 195 -34 250 -40 83 -58 153 -70 282 -14 151 -14 152 -50 174
-18 10 -40 32 -51 50 -21 35 -26 96 -6 96 6 1 23 10 36 21 24 20 24 21 8 52
-9 18 -19 48 -23 67 -5 37 -23 115 -31 140 -6 22 -19 -1 -48 -93 -25 -77 -25
-78 -14 -279 5 -110 16 -231 24 -267 7 -36 25 -120 38 -186 25 -121 36 -210
41 -340 2 -38 8 -96 14 -128 7 -31 17 -83 23 -115 6 -31 22 -90 35 -131 13
-41 22 -76 20 -78 -2 -3 2 -20 10 -38 8 -19 14 -44 14 -55 0 -30 -41 -23 -57
10 -9 20 -12 21 -12 6 -1 -14 -4 -16 -14 -7 -8 6 -16 8 -19 5 -3 -3 -15 6 -26
20 -23 30 -37 34 -28 9 3 -10 -3 -6 -15 10 -31 40 -49 36 -39 -9 l9 -37 -45
44 c-24 24 -44 50 -45 59 0 10 -2 11 -6 3 -8 -22 -23 -14 -80 42 -31 30 -61
55 -68 55 -15 0 -50 38 -43 46 3 3 18 -6 33 -20 15 -14 31 -23 36 -20 13 8 11
24 -3 21 -15 -3 -87 102 -88 128 0 11 -5 27 -11 35 -7 11 -9 6 -7 -22 1 -20 0
-40 -3 -43 -10 -10 -38 41 -50 92 -6 26 -16 53 -22 58 -6 7 -8 3 -4 -12 3 -13
1 -23 -3 -23 -5 0 0 -25 11 -57 22 -64 23 -73 9 -73 -16 0 -50 86 -65 165 -8
39 -21 99 -30 135 -23 99 -43 350 -38 490 3 94 11 155 33 244 17 66 30 133 30
148 0 16 7 42 15 59 19 36 109 287 125 349 7 25 16 54 20 65 5 11 16 61 25
110 9 50 27 136 40 191 14 56 25 116 25 134 0 37 32 182 56 252 13 39 27 99
60 248 3 14 16 42 30 62 13 21 24 40 24 43 0 20 97 143 179 227 101 104 169
158 262 207 31 17 77 44 103 61 25 17 66 38 91 47 30 10 44 20 41 28 -6 16 58
43 124 51 47 6 127 21 170 32 19 5 59 9 89 10 42 2 51 -1 43 -11z m-457 -87
c-3 -5 -11 -10 -16 -10 -6 0 -7 5 -4 10 3 6 11 10 16 10 6 0 7 -4 4 -10z
m1535 -749 c0 -21 -16 -2 -25 29 -7 24 -7 24 9 5 8 -11 16 -27 16 -34z m-53
-423 c-3 -8 -6 -5 -6 6 -1 11 2 17 5 13 3 -3 4 -12 1 -19z m-418 -522 c-3 -3
-21 -16 -42 -30 -34 -24 -37 -24 -37 -6 0 22 25 39 59 40 13 0 22 -2 20 -4z
m-39 -71 c0 -8 -4 -15 -9 -15 -13 0 -22 16 -14 24 11 11 23 6 23 -9z m735
-335 c21 0 23 -19 24 -211 0 -101 3 -194 5 -207 6 -28 -3 -54 -15 -46 -5 3 -9
-12 -9 -32 0 -21 -2 -35 -5 -32 -3 3 -8 99 -10 214 -3 115 -11 245 -19 289
-14 82 -9 130 7 62 5 -20 15 -37 22 -37z m-37 -425 c-10 -41 -15 -52 -23 -44
-2 3 0 21 5 40 6 18 10 47 11 64 1 29 1 29 8 5 4 -14 3 -43 -1 -65z m-21 -107
c-3 -7 -5 -2 -5 12 0 14 2 19 5 13 2 -7 2 -19 0 -25z m-77 -262 c0 -2 -7 -7
-16 -10 -8 -3 -12 -2 -9 4 6 10 25 14 25 6z m-24 -68 c-32 -100 -86 -219 -129
-281 -26 -39 -34 -26 -9 15 11 18 28 53 37 78 10 25 27 68 40 95 12 28 28 69
35 93 7 23 19 42 26 42 11 0 11 -8 0 -42z m-2516 -357 c0 -12 -6 -9 -20 9 -26
33 -26 48 0 25 11 -10 20 -25 20 -34z"/>
<path d="M4240 6202 c0 -5 12 -19 27 -33 l27 -24 -23 33 c-23 32 -31 39 -31
24z"/>
<path d="M2686 5313 c-43 -48 -116 -141 -116 -148 0 -4 5 -3 11 1 12 7 8 -85
-6 -136 -5 -19 -4 -22 4 -10 9 12 11 11 11 -9 0 -23 1 -24 20 -6 16 14 20 15
20 4 0 -8 -6 -23 -13 -34 -17 -24 -31 -88 -18 -80 5 3 15 22 21 43 6 20 15 46
20 57 15 32 41 106 59 170 18 61 36 185 27 185 -3 0 -21 -17 -40 -37z"/>
<path d="M3265 5100 c-16 -7 -13 -9 18 -9 20 -1 37 4 37 9 0 12 -27 12 -55 0z"/>
<path d="M3337 5104 c-3 -3 -3 -13 0 -22 5 -11 2 -14 -9 -9 -19 7 -153 -26
-174 -44 -13 -10 -17 -10 -24 1 -15 24 -43 -8 -36 -41 3 -17 0 -30 -7 -33 -7
-2 7 -5 31 -5 23 -1 42 4 42 9 0 12 59 50 79 50 9 0 11 -7 7 -24 -7 -28 2 -58
15 -50 5 3 9 14 9 24 0 21 45 60 70 60 30 0 51 -34 45 -71 -3 -18 -11 -37 -18
-41 -8 -5 -7 -8 4 -8 22 0 35 18 44 58 l7 32 31 -22 32 -21 -27 29 c-16 17
-28 38 -28 47 0 10 -8 20 -17 23 -39 12 -63 28 -60 38 2 6 14 10 27 8 14 -2
20 0 16 7 -8 12 -49 15 -59 5z"/>
<path d="M3410 5086 c0 -2 7 -7 16 -10 8 -3 12 -2 9 4 -6 10 -25 14 -25 6z"/>
<path d="M3164 5064 c-18 -14 -18 -14 6 -3 31 14 36 19 24 19 -6 0 -19 -7 -30
-16z"/>
<path d="M3325 4979 c-12 -6 -26 -18 -31 -27 -9 -14 -6 -17 19 -19 36 -3 57
12 57 38 0 21 -14 23 -45 8z"/>
<path d="M4008 4504 c-11 -10 -10 -52 1 -59 14 -8 18 6 12 38 -3 16 -9 25 -13
21z"/>
<path d="M3906 4363 c-26 -50 -85 -105 -106 -98 -12 4 -23 -2 -34 -17 -21 -29
-20 -40 2 -36 11 2 25 -2 33 -8 22 -19 86 -33 121 -27 48 7 111 44 125 74 7
14 10 41 6 62 -5 33 -8 36 -33 30 -23 -4 -32 0 -45 21 -22 34 -51 33 -69 -1z"/>
<path d="M3590 4305 c-11 -13 -6 -15 39 -15 50 0 67 12 35 24 -27 11 -61 6
-74 -9z"/>
<path d="M2160 3826 c0 -14 5 -26 10 -26 6 0 10 9 10 19 0 11 -4 23 -10 26 -6
4 -10 -5 -10 -19z"/>
<path d="M2190 3693 c0 -5 4 -14 9 -21 7 -11 9 -11 14 1 3 8 3 18 0 21 -9 8
-23 7 -23 -1z"/>
<path d="M2220 3615 c0 -8 4 -15 10 -15 5 0 7 7 4 15 -4 8 -8 15 -10 15 -2 0
-4 -7 -4 -15z"/>
<path d="M2236 3555 c4 -8 10 -15 15 -15 4 0 6 7 3 15 -4 8 -10 15 -15 15 -4
0 -6 -7 -3 -15z"/>
<path d="M3160 3536 c0 -2 14 -14 30 -26 17 -12 30 -18 30 -13 0 5 -13 17 -30
26 -16 10 -30 16 -30 13z"/>
<path d="M3235 3480 c3 -5 11 -10 16 -10 6 0 7 5 4 10 -3 6 -11 10 -16 10 -6
0 -7 -4 -4 -10z"/>
</g>
</svg>
